<svg width="22" height="22" viewBox="0 0 22 22" fill="none" xmlns="http://www.w3.org/2000/svg">
<path d="M2.34727 0.401752C1.8103 -0.135219 0.939699 -0.135219 0.402728 0.401752C-0.134243 0.938722 -0.134243 1.80932 0.402728 2.3463L9.05556 10.9991L0.402728 19.652C-0.134242 20.1889 -0.134243 21.0595 0.402728 21.5965C0.939699 22.1335 1.8103 22.1335 2.34727 21.5965L11.0001 12.9437L19.6527 21.5963C20.1897 22.1333 21.0603 22.1333 21.5973 21.5963C22.1342 21.0593 22.1342 20.1887 21.5973 19.6518L12.9446 10.9991L21.5973 2.3465C22.1342 1.80953 22.1342 0.93893 21.5973 0.401959C21.0603 -0.135012 20.1897 -0.135012 19.6527 0.401959L11.0001 9.05458L2.34727 0.401752Z" fill="#0C5E84"/>
</svg>
